# xmcd CD database file
#
# Track frame offsets:
#	150
#	14822
#	28590
#	42010
#	49989
#	60421
#	72332
#	85379
#	117787
#	135348
#	144822
#	161686
#	176591
#	201919
#	221277
#	249939
#	291391
#	311776
#
# Disc length: 4477 seconds
#
# Revision: 0
# Processed by: cddbd v1.5.2PL0 Copyright (c) Steve Scherf et al.
# Submitted via: CDex 1.51
#
DISCID=03117b12
DTITLE=Buddy Guy - Can't Quit The Blues - CD1
DYEAR=2006
DGENRE=Blues
TTITLE0=The Way You Been Treating Me
TTITLE1=Sit And Cry (The Blues)
TTITLE2=This Is The End
TTITLE3=Untitled Instrumental
TTITLE4=First Time I Met The Blues
TTITLE5=Ten Years Ago
TTITLE6=Let Me Love You Baby
TTITLE7=Stone Crazy
TTITLE8=When My Left Eye Jumps
TTITLE9=Hoodoo Man Blues
TTITLE10=In The Wee Hours
TTITLE11=I Can't Quit The Blues
TTITLE12=One Room Country Shack
TTITLE13=T-Bone Shuffle
TTITLE14=When You See The Tears From My Eyes (Live)
TTITLE15=I Smell A Rat
TTITLE16=She Suits Me To A T
TTITLE17=D.J. Play My Blues
EXTD=YEAR: 2006
EXTT0=
EXTT1=
EXTT2=
EXTT3=
EXTT4=
EXTT5=
EXTT6=
EXTT7=
EXTT8=
EXTT9=
EXTT10=
EXTT11=
EXTT12=
EXTT13=
EXTT14=
EXTT15=
EXTT16=
EXTT17=
PLAYORDER=
